HIERARCHY
ROOT Hips
{
	OFFSET 48.310699 1.359316 85.489700
	CHANNELS 6 Xposition Yposition Zposition Xrotation Yrotation Zrotation
	JOINT spine
	{
		OFFSET 0.000000 -0.367607 6.392601
		CHANNELS 3 Xrotation Yrotation Zrotation
		JOINT spine1
		{
			OFFSET 0.000000 -0.000001 9.176109
			CHANNELS 3 Xrotation Yrotation Zrotation
			JOINT spine2
			{
				OFFSET 0.000000 -0.000001 8.792381
				CHANNELS 3 Xrotation Yrotation Zrotation
				JOINT Neck
				{
					OFFSET 0.000000 -1.076244 22.573708
					CHANNELS 3 Xrotation Yrotation Zrotation
					JOINT Head
					{
						OFFSET 0.000000 -0.000001 6.820114
						CHANNELS 3 Xrotation Yrotation Zrotation
						End Site
						{
							OFFSET 0.000000 5.444267 16.508499
						}
					}
				}
				JOINT RightShoulder
				{
					OFFSET -3.702209 0.515506 9.495087
					CHANNELS 3 Xrotation Yrotation Zrotation
					JOINT RightArm
					{
						OFFSET 0.000000 -0.000002 12.453697
						CHANNELS 3 Xrotation Yrotation Zrotation
						JOINT RightArmRoll
						{
							OFFSET 0.000000 -0.000001 6.286865
							CHANNELS 3 Xrotation Yrotation Zrotation
							JOINT RightForeArm
							{
								OFFSET 0.000000 -0.000003 18.311401
								CHANNELS 3 Xrotation Yrotation Zrotation
								JOINT RightForeArmRoll
								{
									OFFSET 0.000000 -0.000001 7.054825
									CHANNELS 3 Xrotation Yrotation Zrotation
									JOINT RightHand
									{
										OFFSET 0.000000 -0.000002 14.157501
										CHANNELS 3 Xrotation Yrotation Zrotation
										End Site
										{
											OFFSET 0.000000 0.000000 0.100006
										}
									}
								}
							}
						}
					}
				}
				JOINT LeftShoulder
				{
					OFFSET 3.702209 0.515506 9.495087
					CHANNELS 3 Xrotation Yrotation Zrotation
					JOINT LeftArm
					{
						OFFSET 0.000000 -0.000002 12.453697
						CHANNELS 3 Xrotation Yrotation Zrotation
						JOINT LeftArmRoll
						{
							OFFSET 0.000000 -0.000001 6.286865
							CHANNELS 3 Xrotation Yrotation Zrotation
							JOINT LeftForeArm
							{
								OFFSET 0.000000 -0.000003 18.311401
								CHANNELS 3 Xrotation Yrotation Zrotation
								JOINT LeftForeArmRoll
								{
									OFFSET 0.000000 -0.000001 7.054825
									CHANNELS 3 Xrotation Yrotation Zrotation
									JOINT LeftHand
									{
										OFFSET 0.000000 -0.000002 14.157501
										CHANNELS 3 Xrotation Yrotation Zrotation
										End Site
										{
											OFFSET 0.000000 0.000000 0.100006
										}
									}
								}
							}
						}
					}
				}
			}
		}
	}
	JOINT RightUpLeg
	{
		OFFSET -5.666161 0.871610 -1.039032
		CHANNELS 3 Xrotation Yrotation Zrotation
		JOINT RightUpLegRoll
		{
			OFFSET 0.000000 -0.000003 16.600502
			CHANNELS 3 Xrotation Yrotation Zrotation
			JOINT RightLeg
			{
				OFFSET 0.000000 0.000003 -20.557198
				CHANNELS 3 Xrotation Yrotation Zrotation
				JOINT RightLegRoll
				{
					OFFSET 0.000000 -0.000003 20.624397
					CHANNELS 3 Xrotation Yrotation Zrotation
					JOINT RightFoot
					{
						OFFSET 0.000000 -0.000003 17.166405
						CHANNELS 3 Xrotation Yrotation Zrotation
						JOINT RightToeBase
						{
							OFFSET 0.000000 -0.000002 14.350204
							CHANNELS 3 Xrotation Yrotation Zrotation
							End Site
							{
								OFFSET 0.006081 0.801060 6.949707
							}
						}
					}
				}
			}
		}
	}
	JOINT LeftUpLeg
	{
		OFFSET 5.666161 0.871610 -1.039032
		CHANNELS 3 Xrotation Yrotation Zrotation
		JOINT LeftUpLegRoll
		{
			OFFSET 0.000000 -0.000003 16.600601
			CHANNELS 3 Xrotation Yrotation Zrotation
			JOINT LeftLeg
			{
				OFFSET 0.000000 -0.000003 20.557098
				CHANNELS 3 Xrotation Yrotation Zrotation
				JOINT LeftLegRoll
				{
					OFFSET 0.000000 -0.000003 20.815094
					CHANNELS 3 Xrotation Yrotation Zrotation
					JOINT LeftFoot
					{
						OFFSET 0.000000 -0.000003 16.975708
						CHANNELS 3 Xrotation Yrotation Zrotation
						JOINT LeftToeBase
						{
							OFFSET 0.000000 -0.000002 14.350204
							CHANNELS 3 Xrotation Yrotation Zrotation
							End Site
							{
								OFFSET -0.027260 0.801059 6.949707
							}
						}
					}
				}
			}
		}
	}
}
MOTION
Frames: 8
Frame Time: 0.041667
43.384995 3.032145 84.790596 -0.275577 -2.184069 23.449595 -1.332077 -0.067983 -0.302360 1.338323 -0.132114 -0.605425 2.983360 -0.139357 -0.603801 8.410109 -17.014993 22.064457 10.341569 28.572105 19.673119 -25.827484 -19.787507 -33.184628 -113.763931 -128.436352 -93.112513 -0.000001 -0.000001 -0.000005 94.555978 -0.468953 -0.986338 -0.000004 0.000003 -3.002902 -5.000178 -7.998743 0.000164 -6.280417 25.135323 3.749023 -55.318908 120.259195 58.861204 -0.000005 0.000016 0.000003 24.209495 11.035645 -1.535748 -0.000000 -0.000012 3.000019 -5.000189 7.998709 -0.000151 -5.476547 -173.276558 2.502608 -179.999991 0.000005 -1.167001 158.270687 -2.864315 -1.381930 0.000005 0.000001 0.614466 77.222283 6.622626 2.310163 26.220659 -7.339200 1.142657 -8.214206 174.922360 0.320018 -0.000005 -0.000004 -0.973862 -12.743278 2.594238 0.961642 -0.000000 0.000004 -0.029213 67.813656 -6.334675 -3.609749 25.456953 7.355621 -0.000095 
43.419395 3.013928 84.772896 -0.263425 -2.177501 23.606891 -1.339801 -0.064379 -0.295487 1.322883 -0.125115 -0.591531 2.967928 -0.132193 -0.590000 8.367875 -17.010789 22.028868 10.354381 28.557738 19.641925 -25.936892 -19.676957 -33.363599 -113.816223 -128.724423 -92.434357 -0.000002 0.000000 -0.000007 94.565294 -0.545481 -0.807264 -0.000001 -0.000002 -3.002899 -5.000178 -7.998741 0.000164 -6.344283 25.193868 3.850832 -55.390119 120.153847 58.718870 -0.000005 0.000013 0.000003 23.772082 11.018083 -1.501715 -0.000001 -0.000016 3.000022 -5.000190 7.998705 -0.000153 -5.451258 -173.283238 2.500335 -179.999991 0.000005 -1.167999 158.218914 -2.848412 -1.380574 0.000003 0.000000 0.619647 77.270634 6.620849 2.312131 26.234670 -7.338745 1.163423 -8.262511 174.945733 0.344316 -0.000005 -0.000004 -0.973143 -12.785587 2.581203 0.963401 0.000000 0.000004 -0.029791 67.817583 -6.332279 -3.615654 25.456957 7.355625 -0.000094 
43.457897 2.988383 84.773186 -0.247462 -2.170933 23.765824 -1.348260 -0.060250 -0.288494 1.305983 -0.117017 -0.577431 2.951027 -0.123926 -0.576000 8.331141 -17.005653 21.992395 10.360173 28.543612 19.610337 -26.043896 -19.572775 -33.538828 -113.886643 -129.014255 -91.746639 -0.000001 -0.000002 -0.000005 94.578804 -0.624495 -0.620035 -0.000001 0.000000 -3.002900 -5.000179 -7.998736 0.000164 -6.403760 25.258939 3.947254 -55.474984 120.042105 58.596473 -0.000005 0.000016 0.000004 23.355965 11.001800 -1.469904 0.000001 -0.000014 3.000021 -5.000189 7.998707 -0.000152 -5.430874 -173.288989 2.496635 -179.999991 0.000005 -1.168996 158.163016 -2.829657 -1.378286 0.000003 0.000001 0.625041 77.319941 6.619106 2.314048 26.249491 -7.338281 1.185229 -8.311888 174.972098 0.370231 -0.000004 -0.000004 -0.972380 -12.823594 2.567933 0.964961 0.000000 0.000005 -0.030309 67.819619 -6.329789 -3.621947 25.456957 7.355626 -0.000096 
43.496395 2.974603 84.796593 -0.228282 -2.164329 23.926375 -1.357351 -0.055648 -0.281421 1.287822 -0.107932 -0.563176 2.932867 -0.114671 -0.561861 8.298732 -16.999443 21.954762 10.360147 28.529447 19.578307 -26.148737 -19.474435 -33.710525 -113.974124 -129.304879 -91.052787 -0.000001 -0.000003 -0.000006 94.595688 -0.705499 -0.426689 -0.000002 0.000002 -3.002902 -5.000179 -7.998740 0.000164 -6.459901 25.329798 4.039619 -55.570108 119.926060 58.488802 -0.000005 0.000017 0.000002 22.958052 10.985627 -1.439569 -0.000003 -0.000015 3.000021 -5.000192 7.998702 -0.000152 -5.414427 -173.293784 2.491780 -179.999991 0.000005 -1.170003 158.104017 -2.809927 -1.376755 0.000003 0.000001 0.630593 77.369883 6.617447 2.315843 26.264915 -7.337794 1.207944 -8.362063 175.000443 0.397646 -0.000005 -0.000004 -0.971578 -12.857494 2.554424 0.966333 -0.000000 0.000004 -0.030780 67.820049 -6.327164 -3.628407 25.456953 7.355623 -0.000094 
43.534897 2.976794 84.781601 -0.206448 -2.157619 24.088730 -1.366962 -0.050633 -0.274290 1.268632 -0.097979 -0.548837 2.913675 -0.104546 -0.547639 8.269477 -16.992109 21.916122 10.355446 28.514438 19.545910 -26.251581 -19.381640 -33.879063 -114.077314 -129.595600 -90.356019 0.000001 -0.000000 -0.000003 94.615059 -0.787963 -0.229244 -0.000001 0.000001 -3.002899 -5.000181 -7.998748 0.000165 -6.513721 25.405515 4.129263 -55.676646 119.806381 58.395911 -0.000006 0.000018 0.000002 22.575399 10.968606 -1.410106 -0.000004 -0.000011 3.000021 -5.000190 7.998702 -0.000151 -5.400952 -173.297622 2.486029 -179.999991 0.000005 -1.171005 158.042668 -2.788311 -1.373544 0.000001 0.000001 0.636265 77.420317 6.615765 2.317501 26.280848 -7.337285 1.231484 -8.412713 175.029799 0.426432 -0.000005 -0.000004 -0.970741 -12.887685 2.540675 0.967524 -0.000000 0.000004 -0.031190 67.818909 -6.324513 -3.635252 25.456953 7.355620 -0.000091 
43.576897 2.961013 84.783798 -0.182556 -2.150793 24.252847 -1.376982 -0.045258 -0.267133 1.248622 -0.087272 -0.534468 2.893664 -0.093668 -0.533403 8.242220 -16.983699 21.876447 10.347247 28.498211 19.512995 -26.352844 -19.293737 -34.044972 -114.194711 -129.885404 -89.659190 -0.000000 -0.000001 -0.000005 94.636014 -0.871275 -0.026735 -0.000000 -0.000000 -3.002899 -5.000180 -7.998743 0.000161 -6.566235 25.485239 4.217499 -55.792407 119.684544 58.314086 -0.000005 0.000017 0.000004 22.205063 10.949725 -1.380955 -0.000002 -0.000013 3.000022 -5.000192 7.998702 -0.000151 -5.389471 -173.300477 2.479655 -179.999991 0.000005 -1.172002 157.979994 -2.766672 -1.371357 0.000003 0.000001 0.642000 77.470703 6.614153 2.319179 26.297386 -7.336752 1.255782 -8.463569 175.060112 0.456332 -0.000005 -0.000005 -0.969873 -12.914569 2.526694 0.968556 -0.000000 0.000004 -0.031540 67.816579 -6.321694 -3.642330 25.456957 7.355623 -0.000095 
43.603500 2.927462 84.782402 -0.157170 -2.143805 24.419021 -1.387289 -0.039573 -0.259997 1.228021 -0.075926 -0.520139 2.873073 -0.082151 -0.519211 8.215766 -16.974060 21.835642 10.336721 28.480294 19.479503 -26.452713 -19.210428 -34.208422 -114.324505 -130.173802 -88.965154 -0.000000 0.000000 -0.000005 94.657611 -0.955017 0.176836 0.000000 0.000003 -3.002902 -5.000178 -7.998740 0.000164 -6.618492 25.568234 4.305698 -55.914142 119.562885 58.238291 -0.000005 0.000019 0.000004 21.843778 10.927813 -1.351413 -0.000006 -0.000016 3.000022 -5.000190 7.998704 -0.000150 -5.378985 -173.304343 2.473132 -179.999991 0.000005 -1.173000 157.916842 -2.744128 -1.368772 0.000002 0.000001 0.647757 77.520919 6.612552 2.320667 26.314318 -7.336196 1.280720 -8.514284 175.092405 0.486934 -0.000004 -0.000004 -0.968973 -12.938451 2.512466 0.969441 -0.000000 0.000004 -0.031835 67.813274 -6.318731 -3.649836 25.456955 7.355621 -0.000093 
43.631298 2.921382 84.744301 -0.130870 -2.136628 24.587320 -1.397801 -0.033638 -0.252901 1.207050 -0.064056 -0.505910 2.852093 -0.070112 -0.505126 8.188952 -16.963039 21.793653 10.325042 28.459872 19.445561 -26.551409 -19.131215 -34.369891 -114.464757 -130.460124 -88.276630 -0.000001 0.000001 -0.000006 94.678873 -1.038579 0.383421 -0.000002 0.000003 -3.002902 -5.000182 -7.998745 0.000164 -6.671501 25.653361 4.395147 -56.042665 119.441922 58.168220 -0.000005 0.000017 0.000003 21.488837 10.901974 -1.321065 -0.000005 -0.000013 3.000020 -5.000192 7.998703 -0.000150 -5.368544 -173.307226 2.466538 -179.999991 0.000005 -1.173996 157.854087 -2.722518 -1.365487 0.000003 0.000001 0.653487 77.570588 6.610935 2.322287 26.331663 -7.335621 1.306226 -8.564600 175.124712 0.518268 -0.000004 -0.000005 -0.968051 -12.959825 2.498001 0.970195 -0.000000 0.000004 -0.032063 67.809107 -6.315632 -3.657765 25.456953 7.355622 -0.000093 
